<svg width="112" height="30" viewBox="0 0 112 30" fill="none" xmlns="http://www.w3.org/2000/svg">
<path d="M24 15.0733C24 8.40541 18.6274 3 12 3C5.37258 3 0 8.40541 0 15.0733C0 21.0994 4.3882 26.0943 10.125 27V18.5633H7.07812V15.0733H10.125V12.4134C10.125 9.38755 11.9166 7.71615 14.6576 7.71615C15.9701 7.71615 17.3438 7.95195 17.3438 7.95195V10.9231H15.8306C14.34 10.9231 13.875 11.8539 13.875 12.8096V15.0733H17.2031L16.6711 18.5633H13.875V27C19.6118 26.0943 24 21.0994 24 15.0733Z" fill="#5E667E"/>
<path d="M40.22 24V7.8H46.88V9.84H43.18V14.56H46.2V16.62H43.18V24H40.22ZM50.5417 24.18C50.0217 24.18 49.5751 24.0467 49.2017 23.78C48.8284 23.5 48.5417 23.1533 48.3417 22.74C48.1417 22.3133 48.0417 21.8733 48.0417 21.42C48.0417 20.7 48.1751 20.0933 48.4417 19.6C48.7084 19.1067 49.0617 18.6933 49.5017 18.36C49.9417 18.0267 50.4417 17.74 51.0017 17.5C51.5617 17.2467 52.1284 17.02 52.7017 16.82V15.82C52.7017 15.4867 52.6751 15.2067 52.6217 14.98C52.5817 14.7533 52.4951 14.58 52.3617 14.46C52.2417 14.34 52.0484 14.28 51.7817 14.28C51.5551 14.28 51.3684 14.3333 51.2217 14.44C51.0884 14.5467 50.9884 14.7 50.9217 14.9C50.8684 15.0867 50.8351 15.3067 50.8217 15.56L50.7817 16.26L48.2017 16.16C48.2417 14.8267 48.5684 13.8467 49.1817 13.22C49.8084 12.58 50.7551 12.26 52.0217 12.26C53.1817 12.26 54.0217 12.58 54.5417 13.22C55.0751 13.86 55.3417 14.7267 55.3417 15.82V21.16C55.3417 21.5867 55.3484 21.9733 55.3617 22.32C55.3884 22.6667 55.4151 22.98 55.4417 23.26C55.4817 23.54 55.5151 23.7867 55.5417 24H53.1017C53.0617 23.7333 53.0084 23.4333 52.9417 23.1C52.8884 22.7533 52.8484 22.5 52.8217 22.34C52.6884 22.8067 52.4351 23.2333 52.0617 23.62C51.6884 23.9933 51.1817 24.18 50.5417 24.18ZM51.5417 22.16C51.7151 22.16 51.8751 22.12 52.0217 22.04C52.1817 21.9467 52.3217 21.84 52.4417 21.72C52.5617 21.6 52.6484 21.4933 52.7017 21.4V18.18C52.4084 18.3533 52.1284 18.5267 51.8617 18.7C51.6084 18.8733 51.3817 19.0667 51.1817 19.28C50.9951 19.48 50.8484 19.7 50.7417 19.94C50.6484 20.18 50.6017 20.46 50.6017 20.78C50.6017 21.2067 50.6817 21.5467 50.8417 21.8C51.0151 22.04 51.2484 22.16 51.5417 22.16ZM60.8247 24.18C59.9314 24.18 59.2114 24.0133 58.6647 23.68C58.1314 23.3333 57.738 22.8467 57.4847 22.22C57.2447 21.58 57.1247 20.8267 57.1247 19.96V16.48C57.1247 15.5867 57.2447 14.8267 57.4847 14.2C57.738 13.5733 58.138 13.0933 58.6847 12.76C59.2314 12.4267 59.9447 12.26 60.8247 12.26C61.6514 12.26 62.3247 12.3933 62.8447 12.66C63.378 12.9133 63.7647 13.3067 64.0047 13.84C64.2447 14.36 64.3647 15.02 64.3647 15.82V16.78H61.8047V15.76C61.8047 15.36 61.7714 15.0467 61.7047 14.82C61.6514 14.58 61.5514 14.4133 61.4047 14.32C61.258 14.2133 61.0647 14.16 60.8247 14.16C60.5847 14.16 60.3914 14.2267 60.2447 14.36C60.098 14.48 59.9914 14.68 59.9247 14.96C59.8714 15.24 59.8447 15.6267 59.8447 16.12V20.36C59.8447 21.1067 59.9247 21.6133 60.0847 21.88C60.2447 22.1333 60.498 22.26 60.8447 22.26C61.1114 22.26 61.3114 22.2 61.4447 22.08C61.5914 21.96 61.6847 21.7867 61.7247 21.56C61.778 21.32 61.8047 21.0333 61.8047 20.7V19.46H64.3647V20.56C64.3647 21.3333 64.238 21.9933 63.9847 22.54C63.7447 23.0867 63.358 23.5 62.8247 23.78C62.3047 24.0467 61.638 24.18 60.8247 24.18ZM69.6533 24.18C68.7866 24.18 68.0799 24.02 67.5333 23.7C66.9866 23.3667 66.5799 22.8867 66.3133 22.26C66.0599 21.62 65.9333 20.8533 65.9333 19.96V16.48C65.9333 15.56 66.0599 14.7867 66.3133 14.16C66.5799 13.5333 66.9866 13.06 67.5333 12.74C68.0933 12.42 68.7999 12.26 69.6533 12.26C70.5733 12.26 71.2866 12.4333 71.7933 12.78C72.3133 13.1267 72.6799 13.6333 72.8933 14.3C73.1199 14.9533 73.2333 15.7533 73.2333 16.7V18.34H68.6333V20.62C68.6333 20.9933 68.6666 21.3 68.7333 21.54C68.8133 21.78 68.9333 21.9533 69.0933 22.06C69.2533 22.1667 69.4466 22.22 69.6733 22.22C69.9133 22.22 70.1066 22.1667 70.2533 22.06C70.3999 21.94 70.5066 21.7733 70.5733 21.56C70.6399 21.3333 70.6733 21.0533 70.6733 20.72V19.76H73.2133V20.54C73.2133 21.7133 72.9199 22.6133 72.3333 23.24C71.7466 23.8667 70.8533 24.18 69.6533 24.18ZM68.6333 17H70.6733V15.9C70.6733 15.5 70.6399 15.18 70.5733 14.94C70.5066 14.6867 70.3999 14.5067 70.2533 14.4C70.1066 14.28 69.8999 14.22 69.6333 14.22C69.3933 14.22 69.1999 14.28 69.0533 14.4C68.9066 14.52 68.7999 14.72 68.7333 15C68.6666 15.28 68.6333 15.68 68.6333 16.2V17ZM80.0591 24.18C79.6324 24.18 79.2324 24.08 78.8591 23.88C78.4857 23.68 78.1391 23.4333 77.8191 23.14V24H75.0991V7.8H77.8191V13.32C78.1524 13 78.5124 12.7467 78.8991 12.56C79.2991 12.36 79.7257 12.26 80.1791 12.26C80.6991 12.26 81.1257 12.38 81.4591 12.62C81.7924 12.86 82.0524 13.18 82.2391 13.58C82.4257 13.9667 82.5524 14.3867 82.6191 14.84C82.6991 15.28 82.7391 15.7067 82.7391 16.12V20.04C82.7391 20.8 82.6457 21.4933 82.4591 22.12C82.2857 22.7467 81.9991 23.2467 81.5991 23.62C81.2124 23.9933 80.6991 24.18 80.0591 24.18ZM79.0191 22.28C79.3124 22.28 79.5257 22.1867 79.6591 22C79.8057 21.8 79.8991 21.54 79.9391 21.22C79.9924 20.8867 80.0191 20.5267 80.0191 20.14V16C80.0191 15.64 79.9924 15.32 79.9391 15.04C79.8857 14.7467 79.7857 14.5133 79.6391 14.34C79.5057 14.1667 79.2924 14.08 78.9991 14.08C78.7857 14.08 78.5791 14.1333 78.3791 14.24C78.1791 14.3333 77.9924 14.44 77.8191 14.56V21.86C77.9924 21.98 78.1791 22.08 78.3791 22.16C78.5924 22.24 78.8057 22.28 79.0191 22.28ZM88.1103 24.18C87.2703 24.18 86.577 24.0267 86.0303 23.72C85.4836 23.4 85.0703 22.94 84.7903 22.34C84.5236 21.74 84.3903 21.0133 84.3903 20.16V16.28C84.3903 15.4267 84.5236 14.7 84.7903 14.1C85.0703 13.5 85.4836 13.0467 86.0303 12.74C86.577 12.42 87.2703 12.26 88.1103 12.26C88.9503 12.26 89.6436 12.42 90.1903 12.74C90.7503 13.0467 91.1636 13.5 91.4303 14.1C91.7103 14.7 91.8503 15.4267 91.8503 16.28V20.16C91.8503 21.0133 91.7103 21.74 91.4303 22.34C91.1636 22.94 90.7503 23.4 90.1903 23.72C89.6436 24.0267 88.9503 24.18 88.1103 24.18ZM88.1303 22.3C88.437 22.3 88.6636 22.2133 88.8103 22.04C88.957 21.8667 89.0503 21.6333 89.0903 21.34C89.1303 21.0333 89.1503 20.7 89.1503 20.34V16.1C89.1503 15.74 89.1303 15.4133 89.0903 15.12C89.0503 14.8267 88.957 14.5933 88.8103 14.42C88.6636 14.2333 88.437 14.14 88.1303 14.14C87.8236 14.14 87.597 14.2333 87.4503 14.42C87.3036 14.5933 87.2036 14.8267 87.1503 15.12C87.1103 15.4133 87.0903 15.74 87.0903 16.1V20.34C87.0903 20.7 87.1103 21.0333 87.1503 21.34C87.2036 21.6333 87.3036 21.8667 87.4503 22.04C87.597 22.2133 87.8236 22.3 88.1303 22.3ZM97.2119 24.18C96.3719 24.18 95.6785 24.0267 95.1319 23.72C94.5852 23.4 94.1719 22.94 93.8919 22.34C93.6252 21.74 93.4919 21.0133 93.4919 20.16V16.28C93.4919 15.4267 93.6252 14.7 93.8919 14.1C94.1719 13.5 94.5852 13.0467 95.1319 12.74C95.6785 12.42 96.3719 12.26 97.2119 12.26C98.0519 12.26 98.7452 12.42 99.2919 12.74C99.8519 13.0467 100.265 13.5 100.532 14.1C100.812 14.7 100.952 15.4267 100.952 16.28V20.16C100.952 21.0133 100.812 21.74 100.532 22.34C100.265 22.94 99.8519 23.4 99.2919 23.72C98.7452 24.0267 98.0519 24.18 97.2119 24.18ZM97.2319 22.3C97.5385 22.3 97.7652 22.2133 97.9119 22.04C98.0585 21.8667 98.1519 21.6333 98.1919 21.34C98.2319 21.0333 98.2519 20.7 98.2519 20.34V16.1C98.2519 15.74 98.2319 15.4133 98.1919 15.12C98.1519 14.8267 98.0585 14.5933 97.9119 14.42C97.7652 14.2333 97.5385 14.14 97.2319 14.14C96.9252 14.14 96.6985 14.2333 96.5519 14.42C96.4052 14.5933 96.3052 14.8267 96.2519 15.12C96.2119 15.4133 96.1919 15.74 96.1919 16.1V20.34C96.1919 20.7 96.2119 21.0333 96.2519 21.34C96.3052 21.6333 96.4052 21.8667 96.5519 22.04C96.6985 22.2133 96.9252 22.3 97.2319 22.3ZM102.833 24V7.8H105.553V17.1L108.533 12.44H111.493L108.593 17.08L111.433 24H108.573L106.473 18.3L105.553 19.58V24H102.833Z" fill="#5E667E"/>
</svg>
