<svg width="30" height="24" viewBox="0 0 30 24" fill="none" xmlns="http://www.w3.org/2000/svg">
<path d="M2.417 23.667C1.75033 23.667 1.18067 23.4307 0.708 22.958C0.236 22.486 0 21.9167 0 21.25V2.75001C0 2.08334 0.236 1.51401 0.708 1.04201C1.18067 0.569341 1.75033 0.333008 2.417 0.333008H27.583C28.2497 0.333008 28.8193 0.569341 29.292 1.04201C29.764 1.51401 30 2.08334 30 2.75001V21.25C30 21.9167 29.764 22.486 29.292 22.958C28.8193 23.4307 28.2497 23.667 27.583 23.667H2.417ZM15 11.917L1.417 2.87501V21.25C1.417 21.528 1.514 21.764 1.708 21.958C1.90267 22.1527 2.139 22.25 2.417 22.25H27.583C27.861 22.25 28.0973 22.1527 28.292 21.958C28.486 21.764 28.583 21.528 28.583 21.25V2.87501L15 11.917ZM15 10.292L28.042 1.75001H2L15 10.292ZM1.417 2.87501V1.75001V21.25C1.417 21.528 1.514 21.764 1.708 21.958C1.90267 22.1527 2.139 22.25 2.417 22.25H1.417V21.25V2.87501Z" fill="url(#paint0_linear_13206_850)"/>
<defs>
<linearGradient id="paint0_linear_13206_850" x1="-5.58794e-08" y1="12" x2="30" y2="12" gradientUnits="userSpaceOnUse">
<stop stop-color="#FF06B1"/>
<stop offset="1" stop-color="#01F6FC"/>
</linearGradient>
</defs>
</svg>
