<svg width="30" height="30" viewBox="0 0 30 30" fill="none" xmlns="http://www.w3.org/2000/svg">
<path d="M15 30C12.9167 30 10.9653 29.604 9.146 28.812C7.32667 28.0207 5.73633 26.9513 4.375 25.604C3.01367 24.2567 1.94433 22.6663 1.167 20.833C0.389 18.9997 0 17.0413 0 14.958C0 12.8747 0.389 10.9233 1.167 9.104C1.94433 7.28467 3.01367 5.70133 4.375 4.354C5.73633 3.00667 7.32667 1.94433 9.146 1.167C10.9653 0.389 12.9167 0 15 0C17.0833 0 19.0347 0.389 20.854 1.167C22.6733 1.94433 24.2637 3.00667 25.625 4.354C26.9863 5.70133 28.0557 7.28467 28.833 9.104C29.611 10.9233 30 12.8747 30 14.958C30 17.0413 29.611 18.9997 28.833 20.833C28.0557 22.6663 26.9863 24.2567 25.625 25.604C24.2637 26.9513 22.6733 28.0207 20.854 28.812C19.0347 29.604 17.0833 30 15 30ZM15 28.667C16.0553 27.417 16.9163 26.146 17.583 24.854C18.2497 23.5627 18.8053 22.0973 19.25 20.458H10.792C11.236 22.1807 11.7847 23.6807 12.438 24.958C13.0907 26.236 13.9447 27.4723 15 28.667ZM13.125 28.458C12.2917 27.486 11.5347 26.2917 10.854 24.875C10.1733 23.4583 9.66633 21.986 9.333 20.458H2.5C3.528 22.708 4.95167 24.5067 6.771 25.854C8.59033 27.2013 10.7083 28.0693 13.125 28.458ZM16.917 28.458C19.1943 28.1247 21.2707 27.2567 23.146 25.854C25.0207 24.4513 26.472 22.6527 27.5 20.458H20.708C20.236 22.014 19.6667 23.5003 19 24.917C18.3333 26.3337 17.639 27.514 16.917 28.458ZM2.042 19.042H9.042C8.90267 18.292 8.81233 17.5837 8.771 16.917C8.729 16.2503 8.708 15.5973 8.708 14.958C8.708 14.3193 8.736 13.6737 8.792 13.021C8.84733 12.3683 8.93067 11.6807 9.042 10.958H2.042C1.81933 11.5693 1.65933 12.2153 1.562 12.896C1.46533 13.5767 1.417 14.264 1.417 14.958C1.417 15.6807 1.46533 16.382 1.562 17.062C1.65933 17.7427 1.81933 18.4027 2.042 19.042ZM10.458 19.042H19.542C19.6807 18.264 19.7707 17.5557 19.812 16.917C19.854 16.2777 19.875 15.6247 19.875 14.958C19.875 14.3193 19.854 13.6873 19.812 13.062C19.7707 12.4373 19.6807 11.736 19.542 10.958H10.458C10.3193 11.736 10.2293 12.4373 10.188 13.062C10.146 13.6873 10.125 14.3193 10.125 14.958C10.125 15.6247 10.146 16.2777 10.188 16.917C10.2293 17.5557 10.3193 18.264 10.458 19.042ZM20.958 19.042H27.958C28.1807 18.4027 28.3407 17.7427 28.438 17.062C28.5347 16.382 28.583 15.6807 28.583 14.958C28.583 14.264 28.5347 13.5767 28.438 12.896C28.3407 12.2153 28.1807 11.5693 27.958 10.958H20.958C21.0973 11.764 21.1877 12.4863 21.229 13.125C21.271 13.7637 21.292 14.3747 21.292 14.958C21.292 15.5973 21.264 16.2433 21.208 16.896C21.1527 17.5487 21.0693 18.264 20.958 19.042ZM20.667 9.542H27.5C26.472 7.292 25.0483 5.47933 23.229 4.104C21.4097 2.72933 19.2917 1.87533 16.875 1.542C17.7083 2.56933 18.4513 3.77767 19.104 5.167C19.7567 6.55567 20.2777 8.014 20.667 9.542ZM10.792 9.542H19.25C18.8333 7.93067 18.2707 6.44433 17.562 5.083C16.854 3.72233 16 2.48633 15 1.375C14.028 2.375 13.2087 3.53467 12.542 4.854C11.8753 6.17333 11.292 7.736 10.792 9.542ZM2.5 9.542H9.333C9.69433 8.042 10.2013 6.60433 10.854 5.229C11.5067 3.85433 12.2497 2.62533 13.083 1.542C10.6663 1.87533 8.55533 2.72933 6.75 4.104C4.94467 5.47933 3.528 7.292 2.5 9.542Z" fill="url(#paint0_linear_13206_830)"/>
<defs>
<linearGradient id="paint0_linear_13206_830" x1="-5.58794e-08" y1="15" x2="30" y2="15" gradientUnits="userSpaceOnUse">
<stop stop-color="#FF06B1"/>
<stop offset="1" stop-color="#01F6FC"/>
</linearGradient>
</defs>
</svg>
