<svg width="28" height="28" viewBox="0 0 28 28" fill="none" xmlns="http://www.w3.org/2000/svg">
<path d="M25.458 27.125C22.6247 27.125 19.7427 26.375 16.812 24.875C13.882 23.375 11.2223 21.4373 8.833 19.062C6.44433 16.6873 4.5 14.0347 3 11.104C1.5 8.17333 0.75 5.29133 0.75 2.45799C0.75 1.95799 0.916667 1.53466 1.25 1.18799C1.58333 0.840659 2.014 0.666992 2.542 0.666992H6.333C6.80567 0.666992 7.21533 0.805659 7.562 1.08299C7.90933 1.36099 8.12467 1.74999 8.208 2.24999L9.083 6.04199C9.16633 6.45866 9.15933 6.84733 9.062 7.20799C8.96533 7.56933 8.778 7.86099 8.5 8.08299L4.833 11.542C6.41633 14.1807 8.17333 16.4583 10.104 18.375C12.0347 20.2917 14.2917 21.9583 16.875 23.375L20.458 19.667C20.736 19.361 21.0417 19.1527 21.375 19.042C21.7083 18.9307 22.0693 18.9167 22.458 19L25.708 19.708C26.1807 19.8193 26.5557 20.0417 26.833 20.375C27.111 20.7083 27.25 21.125 27.25 21.625V25.333C27.25 25.861 27.0833 26.2917 26.75 26.625C26.4167 26.9583 25.986 27.125 25.458 27.125ZM4.083 10.25L7.5 7.08299C7.58333 6.99966 7.646 6.88866 7.688 6.74999C7.72933 6.61133 7.736 6.47233 7.708 6.33299L6.875 2.58299C6.847 2.41633 6.77767 2.29133 6.667 2.20799C6.55567 2.12466 6.41667 2.08299 6.25 2.08299H2.583C2.47233 2.08299 2.36833 2.12466 2.271 2.20799C2.17367 2.29133 2.125 2.40266 2.125 2.54199C2.125 3.65266 2.29867 4.86099 2.646 6.16699C2.99333 7.47233 3.47233 8.83333 4.083 10.25ZM18.208 24C19.3473 24.5833 20.5907 25.014 21.938 25.292C23.2847 25.5693 24.4443 25.722 25.417 25.75C25.5277 25.75 25.6317 25.7083 25.729 25.625C25.8263 25.5417 25.875 25.4307 25.875 25.292V21.708C25.875 21.5413 25.8263 21.3957 25.729 21.271C25.6317 21.1457 25.4997 21.0693 25.333 21.042L22.125 20.375C22.0137 20.347 21.9093 20.354 21.812 20.396C21.7153 20.4373 21.6113 20.4997 21.5 20.583L18.208 24Z" fill="url(#paint0_linear_13206_861)"/>
<defs>
<linearGradient id="paint0_linear_13206_861" x1="0.75" y1="13.896" x2="27.25" y2="13.896" gradientUnits="userSpaceOnUse">
<stop stop-color="#FF06B1"/>
<stop offset="1" stop-color="#01F6FC"/>
</linearGradient>
</defs>
</svg>
