<svg width="24" height="24" viewBox="0 0 24 24" fill="none" xmlns="http://www.w3.org/2000/svg">
<path d="M12 11.375C11.1667 11.375 10.4583 11.0833 9.875 10.5C9.29167 9.91667 9 9.20833 9 8.375C9 7.55833 9.29167 6.854 9.875 6.262C10.4583 5.67067 11.1667 5.375 12 5.375C12.8333 5.375 13.5417 5.67067 14.125 6.262C14.7083 6.854 15 7.55833 15 8.375C15 9.20833 14.7083 9.91667 14.125 10.5C13.5417 11.0833 12.8333 11.375 12 11.375ZM5 18.625V16.975C5 16.5583 5.121 16.1707 5.363 15.812C5.60433 15.454 5.925 15.175 6.325 14.975C7.275 14.525 8.221 14.1873 9.163 13.962C10.1043 13.7373 11.05 13.625 12 13.625C12.95 13.625 13.896 13.7373 14.838 13.962C15.7793 14.1873 16.725 14.525 17.675 14.975C18.075 15.175 18.396 15.454 18.638 15.812C18.8793 16.1707 19 16.5583 19 16.975V18.625H5Z" fill="#5E667E"/>
</svg>
